<svg width="519" height="1036" fill="none" xmlns="http://www.w3.org/2000/svg"><path d="M514.745 524.7c-4.8 4-24.2-24.6-27.5-23.6-3.3.9 21.5 30.5 16.2 34.5-7.2 5.3-22.4-28.7-25.6-28-3.2.7 17 30.7 9.6 33.8-6.2 2.6-16.4-30.1-18.9-29.3-2.4.8 10.5 31.5 4.8 32.2-6.4.8-13.9-30.6-18.4-38.4-2.3-4-17.3-28.2-14.9-36-1.8-3-31.9-39.7-54-82.2-6.6-12.6-8.8-28.2-15.1-40.1-17.7-33.3-20.2-42.1-27.3-65-.1.7-.3 1.6-.5 2.7-1.8 11.5-5.3 43.7-6.5 76.5 1.1 25.7 10.8 58.7 14.7 81.5 5.4 32 6.9 33.7 7.5 72.3.5 30.5-18.5 133.2-23.1 170.4 7.9 25.4 2 43.3-2.2 55.5-1.9 17.2-1 110.4-3.9 162.6-.8 13.7 5.2 31.4 5.2 32.3 13.9 25.8 13.6 38.8 28.8 53.1 9.8 9.9 7.2 17.1 1.2 21.8-1.9 1.5-3.9.2-4.2 2.7-.7 5.2-6 1-5.7 2.9.8 4.8-6.3 7.9-9.1 5.4 4.1 7.3-9 18.7-18.8 5.8-2-2.6-1.8-8-3.8-12.6-2.8-6.1-3.4-7.4-9.9-15.3-8.7-10.8-6.5-21.2-15.1-33.4-9.6-13.5-19.2-10-22.4-24.9-3.2-14.9 13.1-18.1 11.1-35.8-2-17.8-11.5-84.6-12.8-111.5-1.5-33.1 7.4-56.4 2.2-83.9-2.6-42.4-12.8-126.6-13.7-178.3h-7.4c-1 51.7-11.1 135.8-13.7 178.3-5.2 27.5 3.7 50.8 2.2 83.9-1.2 26.9-10.7 93.8-12.8 111.5-2 17.8 14.3 21 11.1 35.8-3.2 14.9-12.8 11.3-22.4 24.9-8.7 12.2-6.4 22.6-15.1 33.4-6.5 8-7.1 9.2-9.9 15.3-2.1 4.6-1.8 9.9-3.8 12.6-9.8 12.8-22.9 1.5-18.8-5.8-2.8 2.5-9.9-.6-9.1-5.4.3-1.9-5 2.3-5.7-2.9-.3-2.5-2.3-1.2-4.2-2.7-6.1-4.7-8.7-11.9 1.2-21.8 15.1-14.3 14.9-27.2 28.8-53.1 0-.8 5.9-18.6 5.2-32.3-2.9-52.2-2-145.3-3.9-162.6-4.2-12.2-10.1-30.2-2.2-55.5-4.5-37.2-23.6-139.9-23.1-170.4.6-38.6 2.1-40.3 7.5-72.3 3.9-22.8 13.6-55.9 14.7-81.5-1.2-32.8-4.7-65-6.5-76.5-.2-1.1-.3-2-.5-2.7-7 22.9-9.6 31.7-27.3 65-6.3 11.9-8.5 27.5-15.1 40.1-22.1 42.5-52.2 79.2-54 82.2 2.4 7.7-12.6 32-14.9 36-4.5 7.7-12 39.2-18.4 38.4-5.7-.7 7.2-31.4 4.8-32.2-2.5-.8-12.7 31.9-18.9 29.3-7.4-3.1 12.8-33.2 9.6-33.8-3.2-.7-18.4 33.3-25.6 28-5.4-4 19.5-33.6 16.2-34.5-3.3-.9-22.7 27.7-27.5 23.6-5.7-4.8 11.3-18.8 19.9-32.6 4.8-7.6 8.8-13.7 9.2-14.6-9.3 1.3-28.8 14.1-29.6.3-.3-5.1 7.9.7 20.8-9.3 8.3-6.4 17.4-11.3 25.6-12.8 5.9-9.1 24.3-60.4 41-88.5.7-1.1 17.9-31 17.9-31-.3-.2 15.3-54.2 25.5-84.2 9.8-28.8 12.1-39.6 19.7-62.5 9.8-29.2 50.3-22.8 76.7-34.8 1.3-.6 2.2-1.6 3.1-2.5v-32.7c-6-5.2-8.7-13.6-13.8-27.5-8.3 10.3-28.7-37.2-6.5-32.1-1-12-4.3-55.1 44-57.9h4.7c48.3 2.8 45 45.8 44 57.9 22.2-5.1 1.8 42.4-6.5 32.1-5.1 13.9-7.9 22.3-13.8 27.5v32.7c.9.8 1.8 1.9 3.1 2.5 26.4 12 66.9 5.6 76.7 34.8 7.7 22.8 9.9 33.7 19.7 62.5 10.2 30 25.8 84 25.5 84.2 0 0 17.3 29.9 17.9 31 16.7 28 35.2 79.4 41 88.5 8.2 1.5 17.3 6.4 25.6 12.8 12.9 10 21.1 4.2 20.8 9.3-.8 13.9-20.3 1.1-29.6-.3.4.9 4.4 6.9 9.2 14.6 8.7 13.8 25.7 27.8 19.9 32.6h-.1z" fill="#fff" stroke="#000" stroke-width="4" stroke-linecap="round" stroke-linejoin="round"/><path d="M172.645 1021.2c1.6-4.6 8.9-12.3 8.9-16z" fill="#fff"/><path d="M172.645 1021.2c1.6-4.6 8.9-12.3 8.9-16" stroke="#000" stroke-width="3" stroke-linecap="round" stroke-linejoin="round"/><path d="M161.845 1015.6c3.5-2 9.5-9 11.3-13.4z" fill="#fff"/><path d="M161.845 1015.6c3.5-2 9.5-9 11.3-13.4" stroke="#000" stroke-width="3" stroke-linecap="round" stroke-linejoin="round"/><path d="M156.345 1010.9c2.5-3.2 7.8-9.2 9.2-13.9z" fill="#fff"/><path d="M156.345 1010.9c2.5-3.2 7.8-9.2 9.2-13.9" stroke="#000" stroke-width="3" stroke-linecap="round" stroke-linejoin="round"/><path d="M150.845 1007.7c0-4.8 6.8-7.6 8-12.9z" fill="#fff"/><path d="M150.845 1007.7c0-4.8 6.8-7.6 8-12.9" stroke="#000" stroke-width="3" stroke-linecap="round" stroke-linejoin="round"/><path d="M346.245 1021.2c-1.6-4.6-8.9-12.3-8.9-16z" fill="#fff"/><path d="M346.245 1021.2c-1.6-4.6-8.9-12.3-8.9-16" stroke="#000" stroke-width="3" stroke-linecap="round" stroke-linejoin="round"/><path d="M357.045 1015.6c-3.5-2-9.5-9-11.3-13.4z" fill="#fff"/><path d="M357.045 1015.6c-3.5-2-9.5-9-11.3-13.4" stroke="#000" stroke-width="3" stroke-linecap="round" stroke-linejoin="round"/><path d="M362.545 1010.9c-2.5-3.2-7.8-9.2-9.2-13.9z" fill="#fff"/><path d="M362.545 1010.9c-2.5-3.2-7.8-9.2-9.2-13.9" stroke="#000" stroke-width="3" stroke-linecap="round" stroke-linejoin="round"/><path d="M368.145 1007.7c0-4.8-6.8-7.6-8-12.9z" fill="#fff"/><path d="M368.145 1007.7c0-4.8-6.8-7.6-8-12.9" stroke="#000" stroke-width="3" stroke-linecap="round" stroke-linejoin="round"/><path d="M177.145 432.3c12.2-.3 6.4 18.4 20.8 32.6 12.4 12.2 35.4 17.8 39 27.4" fill="#fff"/><path d="M177.145 432.3c.9 0 1.9 0 2.8.2.9.2 1.8.7 2.6 1.3 1.5 1.2 2.5 3 3.2 4.7 1.4 3.5 2.4 7.1 3.6 10.5 1.3 3.4 2.8 6.8 4.8 9.8 2 3 4.5 5.7 7.3 7.9 2.8 2.3 5.9 4.3 9 6.2 3.1 1.9 6.4 3.7 9.6 5.5 3.2 1.8 6.5 3.6 9.6 5.8 1.5 1.1 3 2.2 4.3 3.6 1.3 1.3 2.5 2.9 3.1 4.7-.8-1.7-2-3.1-3.4-4.3-1.4-1.2-2.9-2.2-4.5-3.1-3.1-1.9-6.5-3.5-9.8-5.2-6.6-3.3-13.3-6.7-19.2-11.5-2.9-2.4-5.6-5.2-7.6-8.4s-3.6-6.7-4.7-10.3c-1.2-3.6-1.9-7.2-3.1-10.7-.6-1.7-1.3-3.4-2.6-4.6-1.3-1.2-3.2-1.8-5-1.8v-.3z" fill="#000"/><path d="M341.645 432.3c-12.2-.3-6.4 18.4-20.8 32.6-12.4 12.2-35.4 17.8-39 27.4" fill="#fff"/><path d="M341.645 432.3c-1.8 0-3.7.6-5 1.8-1.3 1.2-2.1 2.9-2.6 4.6-1.2 3.4-1.9 7.1-3.1 10.7-1.1 3.6-2.6 7.1-4.7 10.3-2 3.2-4.7 6-7.6 8.4-5.9 4.8-12.6 8.2-19.2 11.5-3.3 1.7-6.6 3.3-9.8 5.2-1.6.9-3.1 1.9-4.5 3.1-1.4 1.2-2.7 2.6-3.4 4.3.6-1.8 1.7-3.3 3.1-4.7 1.3-1.3 2.8-2.5 4.3-3.6 3.1-2.1 6.3-4 9.6-5.8 3.2-1.8 6.5-3.6 9.6-5.5 3.2-1.9 6.2-3.9 9-6.2 2.8-2.3 5.3-4.9 7.3-7.9s3.5-6.3 4.8-9.8c1.3-3.4 2.2-7 3.6-10.5.8-1.7 1.7-3.5 3.2-4.7.8-.6 1.6-1 2.6-1.3.9-.2 1.9-.2 2.8-.2v.3z" fill="#000"/><path d="M264.645 409.4c0 2.9-2.3 5.2-5.2 5.2-2.9 0-5.2-2.3-5.2-5.2 0-2.9 2.3-5.2 5.2-5.2 2.9 0 5.2 2.3 5.2 5.2z" fill="#fff" stroke="#000" stroke-linecap="round" stroke-linejoin="round"/><path d="M33.445 476.5c6.8 6 17.3 2.8 21.4-6.4z" fill="#fff"/><path d="M34.445 475.4c1.4 1.4 3.1 2.4 5 2.9s4 .4 6-.1 3.9-1.6 5.5-3 3-3.1 4-5.1c-.8 2-1.9 4-3.4 5.6-1.5 1.6-3.4 3-5.5 3.9-2.1.9-4.5 1.2-6.9.9-2.4-.3-4.7-1.3-6.6-2.8-.7-.5-.8-1.5-.2-2.1.5-.7 1.5-.8 2.1-.2l.1.1-.1-.1z" fill="#000"/><path d="M485.545 476.5c-6.8 6-17.3 2.8-21.4-6.4z" fill="#fff"/><path d="M486.545 477.7c-1.9 1.5-4.2 2.5-6.6 2.8-2.4.3-4.8 0-6.9-.9-2.1-.9-4-2.2-5.5-3.9-1.5-1.6-2.7-3.6-3.4-5.6 1 1.9 2.4 3.7 4 5.1 1.6 1.4 3.5 2.4 5.5 3 2 .6 4.1.6 6 .1 1.9-.5 3.6-1.5 5-2.9.6-.6 1.5-.6 2.1 0 .6.6.6 1.5 0 2.1l-.1.1-.1.1z" fill="#000"/><path d="M318.845 264.3c0 2.3-1.8 4.1-4.1 4.1s-4.1-1.8-4.1-4.1 1.8-4.1 4.1-4.1 4.1 1.8 4.1 4.1zm-110.7 0c0 2.3-1.8 4.1-4.1 4.1s-4.1-1.8-4.1-4.1 1.8-4.1 4.1-4.1 4.1 1.8 4.1 4.1z" fill="#fff" stroke="#000" stroke-linecap="round" stroke-linejoin="round"/><path d="M193.845 355.6c10.6.3 25-5.7 37.1-21.1 7.9-10.1 15.5-43 19.2-43 3.7 0 3.6 10.2 9.2 9.7 5.6.6 5.5-9.7 9.2-9.7 3.7 0 11.2 32.9 19.2 43 12.1 15.4 26.5 21.4 37.1 21.1" fill="#fff"/><path d="M193.845 355.6c4.4 0 8.8-1 12.9-2.6s7.9-3.9 11.4-6.5 6.7-5.7 9.6-9c.8-.8 1.4-1.7 2.1-2.5.7-.8 1.3-1.7 1.9-2.6 1.1-1.8 2.1-3.8 3-5.8 3.5-8 6.2-16.4 9.2-24.8.8-2.1 1.5-4.2 2.4-6.2.5-1 .9-2.1 1.5-3.1.3-.5.6-1 1.3-1.5l.3-.2c.1 0 .3-.1.4-.2h.8c.4 0 .8.2 1.1.4.7.4 1.1 1 1.4 1.5.3.5.6 1 .9 1.6.5 1 .9 2 1.4 3 .5.9 1 1.8 1.7 2.4.7.6 1.4.9 2.3.8h.2c.9 0 1.6-.2 2.3-.8.7-.6 1.2-1.5 1.7-2.4.5-.9.9-2 1.4-3 .3-.5.5-1 .9-1.6.3-.5.8-1.1 1.4-1.5.3-.2.7-.4 1.1-.4h.8c.1 0 .3 0 .4.2l.3.2c.7.5 1 1 1.3 1.5.6 1 1.1 2.1 1.5 3.1.9 2.1 1.6 4.1 2.4 6.2 3 8.3 5.7 16.7 9.2 24.8.9 2 1.9 4 3 5.8.6.9 1.2 1.8 1.9 2.6s1.3 1.7 2.1 2.5c2.9 3.3 6.1 6.3 9.6 9 3.5 2.6 7.3 4.9 11.4 6.5 4.1 1.6 8.4 2.6 12.9 2.6-2.2.1-4.4 0-6.6-.4-2.2-.4-4.3-1-6.4-1.7-4.2-1.5-8.1-3.7-11.8-6.2-3.6-2.6-6.9-5.6-9.9-8.9-.8-.8-1.5-1.7-2.2-2.5-.7-.8-1.4-1.7-2.1-2.7-1.2-1.9-2.3-3.9-3.2-5.9-1.9-4-3.5-8.2-5-12.3l-4.5-12.5c-.8-2.1-1.5-4.1-2.4-6.1-.4-1-.9-2-1.4-2.8-.3-.4-.6-.8-.8-1h-.1c-.1 0-.3 0-.4.2-.6.3-1.1 1.3-1.6 2.2-.5 1-.9 2-1.4 3-.5 1-1.1 2.1-2.1 3-.5.4-1.1.8-1.7 1.1-.7.2-1.4.3-2.1.2h.2c-.7 0-1.4 0-2.1-.2-.7-.2-1.3-.6-1.7-1.1-1-.9-1.5-2-2.1-3-.5-1-.9-2.1-1.4-3-.4-.9-1-1.9-1.6-2.2-.1 0-.3-.1-.4-.1h-.1c-.2.2-.5.6-.8 1-.5.9-1 1.9-1.4 2.8-.9 2-1.6 4-2.4 6.1-3 8.3-5.7 16.7-9.5 24.8-1 2-2 4-3.2 5.9-.6.9-1.3 1.9-2.1 2.7-.7.8-1.4 1.7-2.2 2.5-3 3.3-6.3 6.3-9.9 8.9-3.6 2.6-7.6 4.7-11.8 6.2-2.1.7-4.2 1.3-6.4 1.7-2.2.3-4.4.5-6.6.4l-.2-.1z" fill="#000"/><path d="M174.345 284c-2.3-20.3-3.9-45.8-1.9-66.1z" fill="#fff"/><path d="M172.845 284.2c-1-11-1.7-22.1-1.8-33.1-.2-11.1.1-22.1 1.4-33.1-.8 11-.6 22.1 0 33 .7 11 1.8 22 3.3 32.9.1.8-.5 1.6-1.3 1.7-.8.1-1.6-.5-1.7-1.3l.1-.1z" fill="#000"/><path d="M345.445 217.9c1.8 18.7.4 44.8-1.7 63.8z" fill="#fff"/><path d="M345.445 217.9c1.2 10.6 1.5 21.3 1.4 31.9-.1 10.7-.7 21.3-1.6 32 0 .8-.8 1.4-1.6 1.4s-1.4-.8-1.4-1.6c1.4-10.5 2.4-21.1 3-31.7.6-10.6.9-21.3.1-31.9l.1-.1z" fill="#000"/><path d="M269.845 181.6c10.9-12 33.7-1.7 45.6-12.8z" fill="#fff"/><path d="M269.845 181.6c1.2-1.7 2.8-3 4.6-4.1 1.8-1 3.8-1.8 5.8-2.3 4-1 8.2-1.2 12.2-1.4 4-.1 8.1-.2 12-.8 3.9-.6 7.8-1.8 11-4.3-1.3 1.6-3 2.8-4.9 3.8-1.9.9-3.8 1.6-5.9 2.1-4 .9-8.2 1.1-12.2 1.2-4 .1-8 .2-11.9.9-3.9.7-7.7 2.1-10.7 4.9z" fill="#000"/><path d="M248.945 181.8c-10.9-12-33.7-1.7-45.6-12.8z" fill="#fff"/><path d="M248.945 181.8c-3-2.8-6.8-4.2-10.7-4.9-3.9-.7-7.9-.8-11.9-.9-4-.2-8.2-.3-12.2-1.2-2-.4-4-1.1-5.9-2.1-1.8-1-3.5-2.2-4.9-3.8 3.2 2.5 7.1 3.7 11 4.3 3.9.6 7.9.6 12 .8 4 .2 8.2.4 12.2 1.4 2 .5 4 1.2 5.8 2.3 1.8 1.1 3.4 2.4 4.6 4.1zm-2.7-78.1c2.2-.4 4.4-.6 6.6-.8 2.2-.2 4.4-.2 6.6-.2 2.2 0 4.4 0 6.6.2 2.2.1 4.4.4 6.6.8-2.2.4-4.4.6-6.6.8-2.2.2-4.4.2-6.6.2-2.2 0-4.4 0-6.6-.2-2.2-.1-4.4-.4-6.6-.8z" fill="#000"/><path d="M227.645 65c6.2 1.3 12.8 0 18.1-3.4z" fill="#fff"/><path d="M227.645 65c1.7-.3 3.2-.5 4.7-.7 1.5-.2 3-.4 4.4-.7 1.4-.3 2.9-.6 4.4-.9 1.5-.3 3-.7 4.6-1.1-1 1.4-2.3 2.4-3.7 3.2-1.5.8-3 1.4-4.7 1.7-1.6.3-3.3.4-5 .1-1.6-.2-3.3-.7-4.7-1.7v.1z" fill="#000"/><path d="M291.145 65c-6.2 1.3-12.8 0-18.1-3.4z" fill="#fff"/><path d="M291.145 65c-1.4.9-3 1.4-4.7 1.7-1.6.2-3.3.2-5-.1-1.6-.3-3.2-.9-4.7-1.7-1.4-.8-2.8-1.9-3.7-3.2 1.7.3 3.1.7 4.6 1.1 1.5.3 2.9.7 4.4.9 1.4.3 2.9.5 4.4.7 1.5.2 3 .4 4.7.7V65z" fill="#000"/><path d="M265.445 77.7c.5 5.5 5.1 7.2.6 9-.8.3-1.6-.3-2.3-.8-.8 1.7-2.1 2.8-3.6 2.8s-.5 0-.8-.1c-.3 0-.5.1-.8.1-1.5 0-2.8-1.1-3.6-2.8-.6.5-1.5 1.1-2.3.8-4.6-1.9.1-3.5.6-9" fill="#fff"/><path d="M265.445 77.7c.3 1.1.8 2 1.3 2.9.5.9 1.2 1.7 1.8 2.8.2.3.3.6.4 1v.7c0 .2 0 .5-.2.7-.1.2-.2.4-.4.6-.1.2-.3.3-.4.5-.3.3-.6.4-.9.6l-.4.2h-.2c0 .2-.1.2-.3.2-.5.2-1.1.2-1.6 0-.9-.3-1.4-.7-1.9-1l2.1-.5c-.4 1-1.1 2-2.1 2.8-.5.4-1.1.7-1.8.8-.7.2-1.4 0-2 0h.7c-.7.1-1.3.2-2 0-.7-.1-1.3-.4-1.8-.8-1-.8-1.7-1.8-2.1-2.8l2.1.5c-.5.3-1 .8-1.9 1-.4.1-1 .2-1.6 0-.2 0-.2 0-.3-.1h-.2c0-.1-.4-.3-.4-.3l-.9-.6c-.1-.1-.3-.3-.4-.5-.1-.2-.3-.4-.4-.6 0-.2-.1-.5-.2-.7v-.7c.1-.4.3-.7.4-1 .6-1.1 1.3-1.8 1.8-2.8.5-.9 1-1.9 1.3-2.9.1 1.1 0 2.3-.3 3.4-.1.6-.3 1.1-.5 1.6l-.6 1.5c0 .2-.1.4-.1.6v.1s.4.3.8.4h.3c0 .1.2.2.2.2.2 0 .5-.3.9-.7.5-.5 1.4-.4 1.9.1 0 0 .1.2.2.3.4.8.8 1.3 1.3 1.7.2.2.5.3.7.3h1.4c.2 0 .5.1.7 0 .2 0 .5-.1.7-.3.5-.3 1-.9 1.3-1.5.3-.8 1.2-1 1.8-.7 0 0 .2.1.3.2.4.3.7.6.9.7h.2l.3-.2c.4-.2.7-.4.8-.4v-.1c0-.2 0-.3-.1-.6-.1-.4-.4-1-.6-1.5-.2-.5-.4-1.1-.5-1.6-.3-1.1-.4-2.3-.3-3.4l.8-.1z" fill="#000"/><path d="M273.945 121.1c-3.1 2.9-8.6 5.1-14.8 5.1-6.2 0-11.7-2.2-14.8-5.1" fill="#fff"/><path d="M273.945 121.1c-1.7 2.1-4.1 3.6-6.7 4.6-2.6 1-5.4 1.5-8.1 1.5-2.8 0-5.5-.5-8.1-1.5-2.6-1-5-2.5-6.7-4.6 2.2 1.5 4.7 2.5 7.2 3.2 2.5.7 5.1 1 7.6 1 2.6 0 5.1-.3 7.6-1s4.9-1.7 7.2-3.2z" fill="#000"/></svg>