<svg width="519" height="1036" viewBox="0 0 519 1036" fill="none" xmlns="http://www.w3.org/2000/svg">
<path d="M514.745 524.7C509.945 528.7 490.545 500.1 487.245 501.1C483.945 502 508.745 531.6 503.445 535.6C496.245 540.9 481.045 506.9 477.845 507.6C474.645 508.3 494.845 538.3 487.445 541.4C481.245 544 471.045 511.3 468.545 512.1C466.145 512.9 479.045 543.6 473.345 544.3C466.945 545.1 459.445 513.7 454.945 505.9C452.645 501.9 437.645 477.7 440.045 469.9C438.245 466.9 408.145 430.2 386.045 387.7C379.445 375.1 377.245 359.5 370.945 347.6C353.245 314.3 350.745 305.5 343.645 282.6C343.545 283.3 343.345 284.2 343.145 285.3C341.345 296.8 337.845 329 336.645 361.8C337.745 387.5 347.445 420.5 351.345 443.3C356.745 475.3 358.245 477 358.845 515.6C359.345 546.1 340.345 648.8 335.745 686C343.645 711.4 337.745 729.3 333.545 741.5C331.645 758.7 332.545 851.9 329.645 904.1C328.845 917.8 334.845 935.5 334.845 936.4C348.745 962.2 348.445 975.2 363.645 989.5C373.445 999.4 370.845 1006.6 364.845 1011.3C362.945 1012.8 360.945 1011.5 360.645 1014C359.945 1019.2 354.645 1015 354.945 1016.9C355.745 1021.7 348.645 1024.8 345.845 1022.3C349.945 1029.6 336.845 1041 327.045 1028.1C325.045 1025.5 325.245 1020.1 323.245 1015.5C320.445 1009.4 319.845 1008.1 313.345 1000.2C304.645 989.4 306.845 979 298.245 966.8C288.645 953.3 279.045 956.8 275.845 941.9C272.645 927 288.945 923.8 286.945 906.1C284.945 888.3 275.445 821.5 274.145 794.6C272.645 761.5 281.545 738.2 276.345 710.7C273.745 668.3 263.545 584.1 262.645 532.4H255.245C254.245 584.1 244.145 668.2 241.545 710.7C236.345 738.2 245.245 761.5 243.745 794.6C242.545 821.5 233.045 888.4 230.945 906.1C228.945 923.9 245.245 927.1 242.045 941.9C238.845 956.8 229.245 953.2 219.645 966.8C210.945 979 213.245 989.4 204.545 1000.2C198.045 1008.2 197.445 1009.4 194.645 1015.5C192.545 1020.1 192.845 1025.4 190.845 1028.1C181.045 1040.9 167.945 1029.6 172.045 1022.3C169.245 1024.8 162.145 1021.7 162.945 1016.9C163.245 1015 157.945 1019.2 157.245 1014C156.945 1011.5 154.945 1012.8 153.045 1011.3C146.945 1006.6 144.345 999.4 154.245 989.5C169.345 975.2 169.145 962.3 183.045 936.4C183.045 935.6 188.945 917.8 188.245 904.1C185.345 851.9 186.245 758.8 184.345 741.5C180.145 729.3 174.245 711.3 182.145 686C177.645 648.8 158.545 546.1 159.045 515.6C159.645 477 161.145 475.3 166.545 443.3C170.445 420.5 180.145 387.4 181.245 361.8C180.045 329 176.545 296.8 174.745 285.3C174.545 284.2 174.445 283.3 174.245 282.6C167.245 305.5 164.645 314.3 146.945 347.6C140.645 359.5 138.445 375.1 131.845 387.7C109.745 430.2 79.6447 466.9 77.8447 469.9C80.2447 477.6 65.2447 501.9 62.9447 505.9C58.4447 513.6 50.9446 545.1 44.5446 544.3C38.8446 543.6 51.7447 512.9 49.3447 512.1C46.8447 511.3 36.6447 544 30.4447 541.4C23.0447 538.3 43.2446 508.2 40.0446 507.6C36.8446 506.9 21.6447 540.9 14.4447 535.6C9.04466 531.6 33.9447 502 30.6447 501.1C27.3447 500.2 7.94467 528.8 3.14467 524.7C-2.55533 519.9 14.4446 505.9 23.0446 492.1C27.8446 484.5 31.8446 478.4 32.2446 477.5C22.9446 478.8 3.44467 491.6 2.64467 477.8C2.34467 472.7 10.5447 478.5 23.4447 468.5C31.7447 462.1 40.8446 457.2 49.0446 455.7C54.9446 446.6 73.3446 395.3 90.0446 367.2C90.7446 366.1 107.945 336.2 107.945 336.2C107.645 336 123.245 282 133.445 252C143.245 223.2 145.545 212.4 153.145 189.5C162.945 160.3 203.445 166.7 229.845 154.7C231.145 154.1 232.045 153.1 232.945 152.2V119.5C226.945 114.3 224.245 105.9 219.145 92C210.845 102.3 190.445 54.8 212.645 59.9C211.645 47.9 208.345 4.8 256.645 2C257.245 2 257.945 2 258.645 2C258.645 2 258.645 2 258.845 2C258.845 2 258.845 2 259.045 2H259.145C259.145 2 259.245 2 259.345 2C260.045 2 260.645 2 261.345 2C309.645 4.8 306.345 47.8 305.345 59.9C327.545 54.8 307.145 102.3 298.845 92C293.745 105.9 290.945 114.3 285.045 119.5V152.2C285.945 153 286.845 154.1 288.145 154.7C314.545 166.7 355.045 160.3 364.845 189.5C372.545 212.3 374.745 223.2 384.545 252C394.745 282 410.345 336 410.045 336.2C410.045 336.2 427.345 366.1 427.945 367.2C444.645 395.2 463.145 446.6 468.945 455.7C477.145 457.2 486.245 462.1 494.545 468.5C507.445 478.5 515.645 472.7 515.345 477.8C514.545 491.7 495.045 478.9 485.745 477.5C486.145 478.4 490.145 484.4 494.945 492.1C503.645 505.9 520.645 519.9 514.845 524.7H514.745Z" fill="white" stroke="black" stroke-width="4" stroke-linecap="round" stroke-linejoin="round"/>
<path d="M172.645 1021.2C174.245 1016.6 181.545 1008.9 181.545 1005.2Z" fill="white"/>
<path d="M172.645 1021.2C174.245 1016.6 181.545 1008.9 181.545 1005.2" stroke="black" stroke-width="3" stroke-linecap="round" stroke-linejoin="round"/>
<path d="M161.845 1015.6C165.345 1013.6 171.345 1006.6 173.145 1002.2Z" fill="white"/>
<path d="M161.845 1015.6C165.345 1013.6 171.345 1006.6 173.145 1002.2" stroke="black" stroke-width="3" stroke-linecap="round" stroke-linejoin="round"/>
<path d="M156.345 1010.9C158.845 1007.7 164.145 1001.7 165.545 997Z" fill="white"/>
<path d="M156.345 1010.9C158.845 1007.7 164.145 1001.7 165.545 997" stroke="black" stroke-width="3" stroke-linecap="round" stroke-linejoin="round"/>
<path d="M150.845 1007.7C150.845 1002.9 157.645 1000.1 158.845 994.8Z" fill="white"/>
<path d="M150.845 1007.7C150.845 1002.9 157.645 1000.1 158.845 994.8" stroke="black" stroke-width="3" stroke-linecap="round" stroke-linejoin="round"/>
<path d="M346.245 1021.2C344.645 1016.6 337.345 1008.9 337.345 1005.2Z" fill="white"/>
<path d="M346.245 1021.2C344.645 1016.6 337.345 1008.9 337.345 1005.2" stroke="black" stroke-width="3" stroke-linecap="round" stroke-linejoin="round"/>
<path d="M357.045 1015.6C353.545 1013.6 347.545 1006.6 345.745 1002.2Z" fill="white"/>
<path d="M357.045 1015.6C353.545 1013.6 347.545 1006.6 345.745 1002.2" stroke="black" stroke-width="3" stroke-linecap="round" stroke-linejoin="round"/>
<path d="M362.545 1010.9C360.045 1007.7 354.745 1001.7 353.345 997Z" fill="white"/>
<path d="M362.545 1010.9C360.045 1007.7 354.745 1001.7 353.345 997" stroke="black" stroke-width="3" stroke-linecap="round" stroke-linejoin="round"/>
<path d="M368.145 1007.7C368.145 1002.9 361.345 1000.1 360.145 994.8Z" fill="white"/>
<path d="M368.145 1007.7C368.145 1002.9 361.345 1000.1 360.145 994.8" stroke="black" stroke-width="3" stroke-linecap="round" stroke-linejoin="round"/>
<path d="M177.145 432.3C189.345 432 183.545 450.7 197.945 464.9C210.345 477.1 233.345 482.7 236.945 492.3" fill="white"/>
<path d="M177.145 432.3C178.045 432.3 179.045 432.3 179.945 432.5C180.845 432.7 181.745 433.2 182.545 433.8C184.045 435 185.045 436.8 185.745 438.5C187.145 442 188.145 445.6 189.345 449C190.645 452.4 192.145 455.8 194.145 458.8C196.145 461.8 198.645 464.5 201.445 466.7C204.245 469 207.345 471 210.445 472.9C213.545 474.8 216.845 476.6 220.045 478.4C223.245 480.2 226.545 482 229.645 484.2C231.145 485.3 232.645 486.4 233.945 487.8C235.245 489.1 236.445 490.7 237.045 492.5C236.245 490.8 235.045 489.4 233.645 488.2C232.245 487 230.745 486 229.145 485.1C226.045 483.2 222.645 481.6 219.345 479.9C212.745 476.6 206.045 473.2 200.145 468.4C197.245 466 194.545 463.2 192.545 460C190.545 456.8 188.945 453.3 187.845 449.7C186.645 446.1 185.945 442.5 184.745 439C184.145 437.3 183.445 435.6 182.145 434.4C180.845 433.2 178.945 432.6 177.145 432.6V432.3Z" fill="black"/>
<path d="M341.645 432.3C329.445 432 335.245 450.7 320.845 464.9C308.445 477.1 285.445 482.7 281.845 492.3" fill="white"/>
<path d="M341.645 432.3C339.845 432.3 337.945 432.9 336.645 434.1C335.345 435.3 334.545 437 334.045 438.7C332.845 442.1 332.145 445.8 330.945 449.4C329.845 453 328.345 456.5 326.245 459.7C324.245 462.9 321.545 465.7 318.645 468.1C312.745 472.9 306.045 476.3 299.445 479.6C296.145 481.3 292.845 482.9 289.645 484.8C288.045 485.7 286.545 486.7 285.145 487.9C283.745 489.1 282.445 490.5 281.745 492.2C282.345 490.4 283.445 488.9 284.845 487.5C286.145 486.2 287.645 485 289.145 483.9C292.245 481.8 295.445 479.9 298.745 478.1C301.945 476.3 305.245 474.5 308.345 472.6C311.545 470.7 314.545 468.7 317.345 466.4C320.145 464.1 322.645 461.5 324.645 458.5C326.645 455.5 328.145 452.2 329.445 448.7C330.745 445.3 331.645 441.7 333.045 438.2C333.845 436.5 334.745 434.7 336.245 433.5C337.045 432.9 337.845 432.5 338.845 432.2C339.745 432 340.745 432 341.645 432V432.3Z" fill="black"/>
<path d="M264.645 409.4C264.645 412.3 262.345 414.6 259.445 414.6C256.545 414.6 254.245 412.3 254.245 409.4C254.245 406.5 256.545 404.2 259.445 404.2C262.345 404.2 264.645 406.5 264.645 409.4Z" fill="white" stroke="black" stroke-linecap="round" stroke-linejoin="round"/>
<path d="M33.4446 476.5C40.2446 482.5 50.7447 479.3 54.8447 470.1Z" fill="white"/>
<path d="M34.4447 475.4C35.8447 476.8 37.5447 477.8 39.4447 478.3C41.3447 478.8 43.4447 478.7 45.4447 478.2C47.4447 477.7 49.3447 476.6 50.9447 475.2C52.5447 473.8 53.9447 472.1 54.9447 470.1C54.1447 472.1 53.0446 474.1 51.5446 475.7C50.0446 477.3 48.1446 478.7 46.0446 479.6C43.9446 480.5 41.5447 480.8 39.1447 480.5C36.7447 480.2 34.4446 479.2 32.5446 477.7C31.8446 477.2 31.7447 476.2 32.3447 475.6C32.8447 474.9 33.8447 474.8 34.4447 475.4C34.4447 475.4 34.4446 475.4 34.5446 475.5L34.4447 475.4Z" fill="black"/>
<path d="M485.545 476.5C478.745 482.5 468.245 479.3 464.145 470.1Z" fill="white"/>
<path d="M486.545 477.7C484.645 479.2 482.345 480.2 479.945 480.5C477.545 480.8 475.145 480.5 473.045 479.6C470.945 478.7 469.045 477.4 467.545 475.7C466.045 474.1 464.845 472.1 464.145 470.1C465.145 472 466.545 473.8 468.145 475.2C469.745 476.6 471.645 477.6 473.645 478.2C475.645 478.8 477.745 478.8 479.645 478.3C481.545 477.8 483.245 476.8 484.645 475.4C485.245 474.8 486.145 474.8 486.745 475.4C487.345 476 487.345 476.9 486.745 477.5C486.745 477.5 486.745 477.5 486.645 477.6L486.545 477.7Z" fill="black"/>
<path d="M318.845 264.3C318.845 266.6 317.045 268.4 314.745 268.4C312.445 268.4 310.645 266.6 310.645 264.3C310.645 262 312.445 260.2 314.745 260.2C317.045 260.2 318.845 262 318.845 264.3Z" fill="white" stroke="black" stroke-linecap="round" stroke-linejoin="round"/>
<path d="M208.145 264.3C208.145 266.6 206.345 268.4 204.045 268.4C201.745 268.4 199.945 266.6 199.945 264.3C199.945 262 201.745 260.2 204.045 260.2C206.345 260.2 208.145 262 208.145 264.3Z" fill="white" stroke="black" stroke-linecap="round" stroke-linejoin="round"/>
<path d="M193.845 355.6C204.445 355.9 218.845 349.9 230.945 334.5C238.845 324.4 246.445 291.5 250.145 291.5C253.845 291.5 253.745 301.7 259.345 301.2C264.945 301.8 264.845 291.5 268.545 291.5C272.245 291.5 279.745 324.4 287.745 334.5C299.845 349.9 314.245 355.9 324.845 355.6" fill="white"/>
<path d="M193.845 355.6C198.245 355.6 202.645 354.6 206.745 353C210.845 351.4 214.645 349.1 218.145 346.5C221.645 343.9 224.845 340.8 227.745 337.5C228.545 336.7 229.145 335.8 229.845 335C230.545 334.2 231.145 333.3 231.745 332.4C232.845 330.6 233.845 328.6 234.745 326.6C238.245 318.6 240.945 310.2 243.945 301.8C244.745 299.7 245.445 297.6 246.345 295.6C246.845 294.6 247.245 293.5 247.845 292.5C248.145 292 248.445 291.5 249.145 291L249.445 290.8C249.545 290.8 249.745 290.7 249.845 290.6C249.945 290.6 250.245 290.6 250.345 290.6H250.645C251.045 290.6 251.445 290.8 251.745 291C252.445 291.4 252.845 292 253.145 292.5C253.445 293 253.745 293.5 254.045 294.1C254.545 295.1 254.945 296.1 255.445 297.1C255.945 298 256.445 298.9 257.145 299.5C257.845 300.1 258.545 300.4 259.445 300.3C259.445 300.3 259.545 300.3 259.645 300.3C260.545 300.3 261.245 300.1 261.945 299.5C262.645 298.9 263.145 298 263.645 297.1C264.145 296.2 264.545 295.1 265.045 294.1C265.345 293.6 265.545 293.1 265.945 292.5C266.245 292 266.745 291.4 267.345 291C267.645 290.8 268.045 290.6 268.445 290.6H268.745C268.745 290.6 269.045 290.6 269.245 290.6C269.345 290.6 269.545 290.6 269.645 290.8L269.945 291C270.645 291.5 270.945 292 271.245 292.5C271.845 293.5 272.345 294.6 272.745 295.6C273.645 297.7 274.345 299.7 275.145 301.8C278.145 310.1 280.845 318.5 284.345 326.6C285.245 328.6 286.245 330.6 287.345 332.4C287.945 333.3 288.545 334.2 289.245 335C289.945 335.8 290.545 336.7 291.345 337.5C294.245 340.8 297.445 343.8 300.945 346.5C304.445 349.1 308.245 351.4 312.345 353C316.445 354.6 320.745 355.6 325.245 355.6C323.045 355.7 320.845 355.6 318.645 355.2C316.445 354.8 314.345 354.2 312.245 353.5C308.045 352 304.145 349.8 300.445 347.3C296.845 344.7 293.545 341.7 290.545 338.4C289.745 337.6 289.045 336.7 288.345 335.9C287.645 335.1 286.945 334.2 286.245 333.2C285.045 331.3 283.945 329.3 283.045 327.3C281.145 323.3 279.545 319.1 278.045 315L273.545 302.5C272.745 300.4 272.045 298.4 271.145 296.4C270.745 295.4 270.245 294.4 269.745 293.6C269.445 293.2 269.145 292.8 268.945 292.6H268.845C268.745 292.6 268.545 292.6 268.445 292.8C267.845 293.1 267.345 294.1 266.845 295C266.345 296 265.945 297 265.445 298C264.945 299 264.345 300.1 263.345 301C262.845 301.4 262.245 301.8 261.645 302.1C260.945 302.3 260.245 302.4 259.545 302.3H259.745C259.045 302.3 258.345 302.3 257.645 302.1C256.945 301.9 256.345 301.5 255.945 301C254.945 300.1 254.445 299 253.845 298C253.345 297 252.945 295.9 252.445 295C252.045 294.1 251.445 293.1 250.845 292.8C250.745 292.8 250.545 292.7 250.445 292.7H250.345C250.145 292.9 249.845 293.3 249.545 293.7C249.045 294.6 248.545 295.6 248.145 296.5C247.245 298.5 246.545 300.5 245.745 302.6C242.745 310.9 240.045 319.3 236.245 327.4C235.245 329.4 234.245 331.4 233.045 333.3C232.445 334.2 231.745 335.2 230.945 336C230.245 336.8 229.545 337.7 228.745 338.5C225.745 341.8 222.445 344.8 218.845 347.4C215.245 350 211.245 352.1 207.045 353.6C204.945 354.3 202.845 354.9 200.645 355.3C198.445 355.6 196.245 355.8 194.045 355.7L193.845 355.6Z" fill="black"/>
<path d="M174.345 284C172.045 263.7 170.445 238.2 172.445 217.9Z" fill="white"/>
<path d="M172.845 284.2C171.845 273.2 171.145 262.1 171.045 251.1C170.845 240 171.145 229 172.445 218C171.645 229 171.845 240.1 172.445 251C173.145 262 174.245 273 175.745 283.9C175.845 284.7 175.245 285.5 174.445 285.6C173.645 285.7 172.845 285.1 172.745 284.3L172.845 284.2Z" fill="black"/>
<path d="M345.445 217.9C347.245 236.6 345.845 262.7 343.745 281.7Z" fill="white"/>
<path d="M345.445 217.9C346.645 228.5 346.945 239.2 346.845 249.8C346.745 260.5 346.145 271.1 345.245 281.8C345.245 282.6 344.445 283.2 343.645 283.2C342.845 283.2 342.245 282.4 342.245 281.6C343.645 271.1 344.645 260.5 345.245 249.9C345.845 239.3 346.145 228.6 345.345 218L345.445 217.9Z" fill="black"/>
<path d="M269.845 181.6C280.745 169.6 303.545 179.9 315.445 168.8Z" fill="white"/>
<path d="M269.845 181.6C271.045 179.9 272.645 178.6 274.445 177.5C276.245 176.5 278.245 175.7 280.245 175.2C284.245 174.2 288.445 174 292.445 173.8C296.445 173.7 300.545 173.6 304.445 173C308.345 172.4 312.245 171.2 315.445 168.7C314.145 170.3 312.445 171.5 310.545 172.5C308.645 173.4 306.745 174.1 304.645 174.6C300.645 175.5 296.445 175.7 292.445 175.8C288.445 175.9 284.445 176 280.545 176.7C276.645 177.4 272.845 178.8 269.845 181.6Z" fill="black"/>
<path d="M248.945 181.8C238.045 169.8 215.245 180.1 203.345 169Z" fill="white"/>
<path d="M248.945 181.8C245.945 179 242.145 177.6 238.245 176.9C234.345 176.2 230.345 176.1 226.345 176C222.345 175.8 218.145 175.7 214.145 174.8C212.145 174.4 210.145 173.7 208.245 172.7C206.445 171.7 204.745 170.5 203.345 168.9C206.545 171.4 210.445 172.6 214.345 173.2C218.245 173.8 222.245 173.8 226.345 174C230.345 174.2 234.545 174.4 238.545 175.4C240.545 175.9 242.545 176.6 244.345 177.7C246.145 178.8 247.745 180.1 248.945 181.8Z" fill="black"/>
<path d="M246.245 103.7C248.445 103.3 250.645 103.1 252.845 102.9C255.045 102.7 257.245 102.7 259.445 102.7C261.645 102.7 263.845 102.7 266.045 102.9C268.245 103 270.445 103.3 272.645 103.7C270.445 104.1 268.245 104.3 266.045 104.5C263.845 104.7 261.645 104.7 259.445 104.7C257.245 104.7 255.045 104.7 252.845 104.5C250.645 104.4 248.445 104.1 246.245 103.7Z" fill="black"/>
<path d="M227.645 65C233.845 66.3 240.445 65 245.745 61.6Z" fill="white"/>
<path d="M227.645 65C229.345 64.7 230.845 64.5 232.345 64.3C233.845 64.1 235.345 63.9 236.745 63.6C238.145 63.3 239.645 63 241.145 62.7C242.645 62.4 244.145 62 245.745 61.6C244.745 63 243.445 64 242.045 64.8C240.545 65.6 239.045 66.2 237.345 66.5C235.745 66.8 234.045 66.9 232.345 66.6C230.745 66.4 229.045 65.9 227.645 64.9V65Z" fill="black"/>
<path d="M291.145 65C284.945 66.3 278.345 65 273.045 61.6Z" fill="white"/>
<path d="M291.145 65C289.745 65.9 288.145 66.4 286.445 66.7C284.845 66.9 283.145 66.9 281.445 66.6C279.845 66.3 278.245 65.7 276.745 64.9C275.345 64.1 273.945 63 273.045 61.7C274.745 62 276.145 62.4 277.645 62.8C279.145 63.1 280.545 63.5 282.045 63.7C283.445 64 284.945 64.2 286.445 64.4C287.945 64.6 289.445 64.8 291.145 65.1V65Z" fill="black"/>
<path d="M265.445 77.7C265.945 83.2 270.545 84.9 266.045 86.7C265.245 87 264.445 86.4 263.745 85.9C262.945 87.6 261.645 88.7 260.145 88.7C258.645 88.7 259.645 88.7 259.345 88.6C259.045 88.6 258.845 88.7 258.545 88.7C257.045 88.7 255.745 87.6 254.945 85.9C254.345 86.4 253.445 87 252.645 86.7C248.045 84.8 252.745 83.2 253.245 77.7" fill="white"/>
<path d="M265.445 77.7C265.745 78.8 266.245 79.7 266.745 80.6C267.245 81.5 267.945 82.3 268.545 83.4C268.745 83.7 268.845 84 268.945 84.4C268.945 84.6 268.945 84.8 268.945 85.1C268.945 85.3 268.945 85.6 268.745 85.8C268.645 86 268.545 86.2 268.345 86.4C268.245 86.6 268.045 86.7 267.945 86.9C267.645 87.2 267.345 87.3 267.045 87.5L266.645 87.7H266.445C266.445 87.9 266.345 87.9 266.145 87.9C265.645 88.1 265.045 88.1 264.545 87.9C263.645 87.6 263.145 87.2 262.645 86.9L264.745 86.4C264.345 87.4 263.645 88.4 262.645 89.2C262.145 89.6 261.545 89.9 260.845 90C260.145 90.2 259.445 90 258.845 90H259.545C258.845 90.1 258.245 90.2 257.545 90C256.845 89.9 256.245 89.6 255.745 89.2C254.745 88.4 254.045 87.4 253.645 86.4L255.745 86.9C255.245 87.2 254.745 87.7 253.845 87.9C253.445 88 252.845 88.1 252.245 87.9C252.045 87.9 252.045 87.9 251.945 87.8H251.745C251.745 87.7 251.345 87.5 251.345 87.5C251.045 87.3 250.745 87.1 250.445 86.9C250.345 86.8 250.145 86.6 250.045 86.4C249.945 86.2 249.745 86 249.645 85.8C249.645 85.6 249.545 85.3 249.445 85.1C249.445 84.9 249.445 84.6 249.445 84.4C249.545 84 249.745 83.7 249.845 83.4C250.445 82.3 251.145 81.6 251.645 80.6C252.145 79.7 252.645 78.7 252.945 77.7C253.045 78.8 252.945 80 252.645 81.1C252.545 81.7 252.345 82.2 252.145 82.7C251.945 83.2 251.745 83.7 251.545 84.2C251.545 84.4 251.445 84.6 251.445 84.8V84.9C251.445 84.9 251.845 85.2 252.245 85.3H252.545C252.545 85.4 252.745 85.5 252.745 85.5C252.945 85.5 253.245 85.2 253.645 84.8C254.145 84.3 255.045 84.4 255.545 84.9C255.545 84.9 255.645 85.1 255.745 85.2C256.145 86 256.545 86.5 257.045 86.9C257.245 87.1 257.545 87.2 257.745 87.2C257.945 87.2 258.245 87.2 258.445 87.2C258.645 87.2 258.845 87.2 259.145 87.2C259.345 87.2 259.645 87.3 259.845 87.2C260.045 87.2 260.345 87.1 260.545 86.9C261.045 86.6 261.545 86 261.845 85.4C262.145 84.6 263.045 84.4 263.645 84.7C263.645 84.7 263.845 84.8 263.945 84.9C264.345 85.2 264.645 85.5 264.845 85.6H265.045L265.345 85.4C265.745 85.2 266.045 85 266.145 85C266.145 85 266.145 85 266.145 84.9C266.145 84.7 266.145 84.6 266.045 84.3C265.945 83.9 265.645 83.3 265.445 82.8C265.245 82.3 265.045 81.7 264.945 81.2C264.645 80.1 264.545 78.9 264.645 77.8L265.445 77.7Z" fill="black"/>
<path d="M273.945 121.1C270.845 124 265.345 126.2 259.145 126.2C252.945 126.2 247.445 124 244.345 121.1" fill="white"/>
<path d="M273.945 121.1C272.245 123.2 269.845 124.7 267.245 125.7C264.645 126.7 261.845 127.2 259.145 127.2C256.345 127.2 253.645 126.7 251.045 125.7C248.445 124.7 246.045 123.2 244.345 121.1C246.545 122.6 249.045 123.6 251.545 124.3C254.045 125 256.645 125.3 259.145 125.3C261.745 125.3 264.245 125 266.745 124.3C269.245 123.6 271.645 122.6 273.945 121.1Z" fill="black"/>
</svg>
